<svg width="404" height="453" viewBox="0 0 404 453" fill="none" xmlns="http://www.w3.org/2000/svg">
<g filter="url(#filter0_d_1_3)">
<path d="M331.55 443.5H70.3196C73.5 393.5 94 195.76 127 195.76H25.23C10.898 195.76 1.29548 181.159 7.85661 168.417C78.7249 30.7875 251.447 -124.21 395.849 167.74C402.271 180.723 392.667 195.76 378.184 195.76H285.605C304.42 221.517 336.801 322.723 331.55 443.5Z" fill="#FFF27B"/>
<path d="M331.55 443.5H70.3196C73.5 393.5 94 195.76 127 195.76H25.23C10.898 195.76 1.29548 181.159 7.85661 168.417C78.7249 30.7875 251.447 -124.21 395.849 167.74C402.271 180.723 392.667 195.76 378.184 195.76H285.605C304.42 221.517 336.801 322.723 331.55 443.5Z" stroke="#BDB77B" stroke-width="3"/>
</g>
<defs>
<filter id="filter0_d_1_3" x="0.243286" y="0.500092" width="403.141" height="452.5" filterUnits="userSpaceOnUse" color-interpolation-filters="sRGB">
<feFlood flood-opacity="0" result="BackgroundImageFix"/>
<feColorMatrix in="SourceAlpha" type="matrix" values="0 0 0 0 0 0 0 0 0 0 0 0 0 0 0 0 0 0 127 0" result="hardAlpha"/>
<feOffset dy="4"/>
<feGaussianBlur stdDeviation="2"/>
<feComposite in2="hardAlpha" operator="out"/>
<feColorMatrix type="matrix" values="0 0 0 0 0 0 0 0 0 0 0 0 0 0 0 0 0 0 0.25 0"/>
<feBlend mode="normal" in2="BackgroundImageFix" result="effect1_dropShadow_1_3"/>
<feBlend mode="normal" in="SourceGraphic" in2="effect1_dropShadow_1_3" result="shape"/>
</filter>
</defs>
</svg>
